<?xml version="1.0" encoding="UTF-8"?>
<svg width="49px" height="68px" viewBox="0 0 49 68" version="1.1" xmlns="http://www.w3.org/2000/svg" xmlns:xlink="http://www.w3.org/1999/xlink">
    <!-- Generator: Sketch 51.2 (57519) - http://www.bohemiancoding.com/sketch -->
    <title>feefo_gold_trusted_service_2018_light.svg feefo_gold_trusted_service_2018_light_no_border</title>
    <desc>Created with Sketch.</desc>
    <defs></defs>
    <g id="feefo_gold_trusted_service_2018_light.svg-feefo_gold_trusted_service_2018_light_no_border" stroke="none" stroke-width="1" fill="none" fill-rule="evenodd">
        <path d="M10.1596156,62.8984724 L6.5808112,62.8984724 C6.73765903,62.1731357 7.40809381,61.6889271 8.34869164,61.6889271 C9.24673512,61.6889271 9.88847425,62.1161891 10.1596156,62.8984724 M12.4267351,64.4923258 L12.4267351,64.2502215 C12.4267351,61.4046823 10.7584742,59.654958 8.32032207,59.654958 C7.27945251,59.654958 6.26711555,60.0815692 5.49689816,60.8498599 C4.74151773,61.604158 4.32820251,62.585917 4.32820251,63.6529332 C4.32820251,64.7336166 4.71314816,65.7020338 5.45418077,66.4841544 C6.23874599,67.3095544 7.17983294,67.7080177 8.34869164,67.7080177 C10.060159,67.7080177 11.3289634,66.8969357 12.070159,65.3032451 L9.58928947,65.3032451 C9.24673512,65.6021332 8.87646338,65.730019 8.42010468,65.730019 C7.43613729,65.730019 6.85162642,65.3032451 6.6520612,64.4923258 L12.4267351,64.4923258" id="Fill-4" fill="#302A3D"></path>
        <path d="M18.6845069,62.8984724 L15.1055395,62.8984724 C15.2625503,62.1731357 15.932659,61.6889271 16.873746,61.6889271 C17.7721156,61.6889271 18.4132025,62.1161891 18.6845069,62.8984724 M20.9516264,64.4923258 L20.9516264,64.2502215 C20.9516264,61.4046823 19.2833656,59.654958 16.8452134,59.654958 C15.8045069,59.654958 14.7916808,60.0815692 14.0217895,60.8498599 C13.266246,61.604158 12.8529308,62.585917 12.8529308,63.6529332 C12.8529308,64.7336166 13.2380395,65.7020338 13.978909,66.4841544 C14.7633112,67.3095544 15.7047242,67.7080177 16.873746,67.7080177 C18.5847242,67.7080177 19.8538547,66.8969357 20.5952134,65.3032451 L18.1140177,65.3032451 C17.7721156,65.6021332 17.4011916,65.730019 16.944996,65.730019 C15.9613547,65.730019 15.3763547,65.3032451 15.1769525,64.4923258 L20.9516264,64.4923258" id="Fill-5" fill="#302A3D"></path>
        <path d="M1.13548512,61.58984 L1.13548512,67.5225346 L3.34570251,67.5225346 L3.34570251,61.58984 L4.24390903,61.58984 L4.24390903,59.8820935 L3.34570251,59.8820935 L3.34570251,59.6972611 C3.34570251,59.000235 3.50255034,58.772286 4.18700686,58.772286 L4.24390903,58.772286 L4.24390903,57.2357046 C4.11575686,57.2357046 4.00130034,57.221712 3.88749599,57.221712 C2.00564816,57.221712 1.12113729,57.9615294 1.12113729,59.597686 C1.12113729,59.6829431 1.13548512,59.782681 1.13548512,59.8820935 L0.30869164,59.8820935 L0.30869164,61.58984 L1.13548512,61.58984" id="Fill-6" fill="#302A3D"></path>
        <path d="M21.8071156,61.58984 L21.8071156,67.5225346 L24.0173329,67.5225346 L24.0173329,61.58984 L24.9153764,61.58984 L24.9153764,59.8820935 L24.0173329,59.8820935 L24.0173329,59.6972611 C24.0173329,59.000235 24.1740177,58.772286 24.8584742,58.772286 L24.9153764,58.772286 L24.9153764,57.2357046 C24.7872242,57.2357046 24.6729308,57.221712 24.5586373,57.221712 C22.6767895,57.221712 21.7929308,57.9615294 21.7929308,59.597686 C21.7929308,59.6829431 21.8071156,59.782681 21.8071156,59.8820935 L20.980159,59.8820935 L20.980159,61.58984 L21.8071156,61.58984" id="Fill-7" fill="#302A3D"></path>
        <path d="M30.7580395,63.7093917 C30.7580395,64.74826 29.9452677,65.5879779 28.9474416,65.5879779 C27.9634742,65.5879779 27.1363547,64.74826 27.1363547,63.7093917 C27.1363547,62.6568562 27.9494525,61.8171382 28.9474416,61.8171382 C29.9452677,61.8171382 30.7580395,62.6568562 30.7580395,63.7093917 M32.9963003,63.6529332 C32.9963003,62.6139022 32.5544525,61.5610413 31.7420069,60.793076 C30.9719525,60.0672512 30.0170069,59.6831058 28.9042351,59.6831058 C27.8636916,59.6831058 26.8515177,60.1102052 26.0811373,60.8781705 C25.3255938,61.6323059 24.9122786,62.6139022 24.9122786,63.6809184 C24.9122786,64.74826 25.2968982,65.7305071 26.0385829,66.4984724 C26.8231482,67.3240351 27.763909,67.722173 28.9330938,67.722173 C30.0879308,67.722173 31.0573873,67.3097171 31.8419525,66.5271084 C32.6118438,65.758655 32.9963003,64.805532 32.9963003,63.6529332" id="Fill-8" fill="#302A3D"></path>
        <path d="M36.4542895,62.4118232 C35.3695612,62.3459279 34.4977677,61.4767604 34.4371156,60.3929856 L39.1803764,60.3929856 L39.1803764,60.3412456 C39.1803764,58.4820212 37.990159,57.2433517 36.3448873,57.2433517 C34.6063547,57.2433517 33.4267351,58.5134231 33.4267351,60.1658501 C33.4267351,61.7253729 34.6474416,63.0985989 36.313909,63.0985989 C37.5246699,63.0985989 38.4872786,62.4274428 39.0049416,61.1881226 L38.5257569,61.1881226 C38.181246,61.9141101 37.4410286,62.4157281 36.5826047,62.4157281 C36.5376047,62.4157281 36.4984742,62.4145892 36.4542895,62.4118232" id="Fill-9" fill="#FFDA1A"></path>
        <path d="M42.4764634,62.4118232 C43.5611916,62.3459279 44.4334742,61.4767604 44.4942895,60.3929856 L39.7505395,60.3929856 L39.7505395,60.3412456 C39.7505395,58.4820212 40.9409199,57.2433517 42.5865177,57.2433517 C44.3245612,57.2433517 45.504996,58.5134231 45.504996,60.1658501 C45.504996,61.7253729 44.2836373,63.0985989 42.6171699,63.0985989 C41.406409,63.0985989 40.4441264,62.4274428 39.9263003,61.1881226 L40.4059742,61.1881226 C40.750159,61.9141101 41.4910286,62.4157281 42.3488003,62.4157281 C42.3933112,62.4157281 42.4329308,62.4145892 42.4764634,62.4118232" id="Fill-10" fill="#FFDA1A"></path>
        <path d="M3.7660286,51.788683 L1.65282207,52.8973515 C1.52825686,52.9627587 1.38249599,52.8571635 1.40630034,52.7185393 L1.80983294,50.3705505 C1.81928947,50.3155564 1.8010286,50.2594233 1.76108294,50.2205369 L0.051409031,48.5575341 C-0.0493518386,48.4594233 0.00640903095,48.2885836 0.145648161,48.2684082 L2.50814816,47.9257525 C2.56358294,47.9176173 2.61135468,47.8829612 2.63613729,47.8330109 L3.69265903,45.6967007 C3.75494164,45.5707674 3.93510468,45.5707674 3.99738729,45.6967007 L5.05390903,47.8330109 C5.07869164,47.8829612 5.12646338,47.9176173 5.18189816,47.9257525 L7.54439816,48.2684082 C7.68380034,48.2885836 7.73939816,48.4594233 7.63863729,48.5575341 L5.92896338,50.2205369 C5.88901773,50.2594233 5.87075686,50.3155564 5.88021338,50.3705505 L6.28374599,52.7185393 C6.30755034,52.8571635 6.16195251,52.9627587 6.03722425,52.8973515 L3.92401773,51.788683 C3.87461555,51.762813 3.81543077,51.762813 3.7660286,51.788683" id="Fill-11" fill="#FFDA1A"></path>
        <path d="M13.9166264,51.788683 L11.8035829,52.8973515 C11.6788547,52.9627587 11.5330938,52.8571635 11.5568982,52.7185393 L11.9605938,50.3705505 C11.9700503,50.3155564 11.9517895,50.2594233 11.9116808,50.2205369 L10.2021699,48.5575341 C10.101409,48.4594233 10.1570069,48.2885836 10.296246,48.2684082 L12.658909,47.9257525 C12.7141808,47.9176173 12.7619525,47.8829612 12.7867351,47.8330109 L13.8432569,45.6967007 C13.9057025,45.5707674 14.0857025,45.5707674 14.1479851,45.6967007 L15.2045069,47.8330109 C15.2292895,47.8829612 15.2772242,47.9176173 15.332496,47.9257525 L17.694996,48.2684082 C17.8343982,48.2885836 17.889996,48.4594233 17.7892351,48.5575341 L16.0797242,50.2205369 C16.0396156,50.2594233 16.0213547,50.3155564 16.0308112,50.3705505 L16.4343438,52.7185393 C16.4581482,52.8571635 16.3125503,52.9627587 16.1878221,52.8973515 L14.0747786,51.788683 C14.0252134,51.762813 13.9661916,51.762813 13.9166264,51.788683" id="Fill-12" fill="#FFDA1A"></path>
        <path d="M24.0672242,51.788683 L21.9541808,52.8973515 C21.8294525,52.9627587 21.6838547,52.8571635 21.707659,52.7185393 L22.1111916,50.3705505 C22.1206482,50.3155564 22.1023873,50.2594233 22.0622786,50.2205369 L20.3527677,48.5575341 C20.2520069,48.4594233 20.3076047,48.2885836 20.4470069,48.2684082 L22.8095069,47.9257525 C22.8647786,47.9176173 22.9127134,47.8829612 22.937496,47.8330109 L23.9940177,45.6967007 C24.0563003,45.5707674 24.2363003,45.5707674 24.298746,45.6967007 L25.3552677,47.8330109 C25.3800503,47.8829612 25.4278221,47.9176173 25.4830938,47.9257525 L27.8457569,48.2684082 C27.984996,48.2885836 28.0407569,48.4594233 27.9398329,48.5575341 L26.2303221,50.2205369 C26.1902134,50.2594233 26.1721156,50.3155564 26.1815721,50.3705505 L26.5851047,52.7185393 C26.608909,52.8571635 26.4631482,52.9627587 26.3385829,52.8973515 L24.2253764,51.788683 C24.1758112,51.762813 24.1167895,51.762813 24.0672242,51.788683" id="Fill-13" fill="#FFDA1A"></path>
        <path d="M34.2179851,51.788683 L32.1047786,52.8973515 C31.9802134,52.9627587 31.8346156,52.8571635 31.8582569,52.7185393 L32.2619525,50.3705505 C32.271246,50.3155564 32.2529851,50.2594233 32.2130395,50.2205369 L30.5035286,48.5575341 C30.4026047,48.4594233 30.4583656,48.2885836 30.5976047,48.2684082 L32.9601047,47.9257525 C33.0155395,47.9176173 33.0633112,47.8829612 33.0880938,47.8330109 L34.1446156,45.6967007 C34.2068982,45.5707674 34.3870612,45.5707674 34.4493438,45.6967007 L35.5058656,47.8330109 C35.5306482,47.8829612 35.5784199,47.9176173 35.6338547,47.9257525 L37.9963547,48.2684082 C38.1357569,48.2885836 38.1913547,48.4594233 38.0905938,48.5575341 L36.3809199,50.2205369 C36.3409742,50.2594233 36.3227134,50.3155564 36.3321699,50.3705505 L36.7357025,52.7185393 C36.7595069,52.8571635 36.613746,52.9627587 36.4891808,52.8973515 L34.3759742,51.788683 C34.3265721,51.762813 34.2673873,51.762813 34.2179851,51.788683" id="Fill-14" fill="#FFDA1A"></path>
        <path d="M44.3685829,51.788683 L42.2555395,52.8973515 C42.1308112,52.9627587 41.9852134,52.8571635 42.0090177,52.7185393 L42.4125503,50.3705505 C42.4220069,50.3155564 42.403746,50.2594233 42.3636373,50.2205369 L40.6541264,48.5575341 C40.5533656,48.4594233 40.6089634,48.2885836 40.7482025,48.2684082 L43.1108656,47.9257525 C43.1661373,47.9176173 43.213909,47.8829612 43.2386916,47.8330109 L44.2952134,45.6967007 C44.357659,45.5707674 44.537659,45.5707674 44.5999416,45.6967007 L45.6564634,47.8330109 C45.681246,47.8829612 45.7291808,47.9176173 45.7846156,47.9257525 L48.1469525,48.2684082 C48.2863547,48.2885836 48.3421156,48.4594233 48.2411916,48.5575341 L46.5316808,50.2205369 C46.4915721,50.2594233 46.4733112,50.3155564 46.4827677,50.3705505 L46.8863003,52.7185393 C46.9101047,52.8571635 46.7645069,52.9627587 46.6397786,52.8973515 L44.5267351,51.788683 C44.4771699,51.762813 44.4181482,51.762813 44.3685829,51.788683" id="Fill-15" fill="#FFDA1A"></path>
        <path d="M5.63010468,19.3180692 C2.81662642,19.3180692 0.558474248,17.1417337 0.558474248,14.3214137 C0.558474248,11.4623701 2.8683112,9.4148965 5.66890903,9.4148965 C7.73336555,9.4148965 9.86287642,10.7539546 10.4436373,12.7888999 L7.70776773,12.7888999 C7.26901773,12.0033626 6.50760468,11.5525084 5.60434381,11.5525084 C4.04271338,11.5525084 2.99760468,12.81477 2.99760468,14.3214137 C2.99760468,15.8797975 3.99119164,17.1802947 5.6170612,17.1802947 C6.66233294,17.1802947 7.6045612,16.7040586 7.90130034,15.6477809 L5.04934381,15.6477809 L5.04934381,13.7031366 L10.7146156,13.7031366 C10.7273329,13.8707222 10.7273329,14.0379825 10.7273329,14.2054054 C10.7273329,17.1288801 8.55934381,19.3180692 5.63010468,19.3180692" id="Fill-16" fill="#FFDA1A"></path>
        <path d="M15.4249416,13.7418603 C14.4311916,13.7418603 13.7084199,14.5791377 13.7084199,15.5447889 C13.7084199,16.5106029 14.4311916,17.3477176 15.4249416,17.3477176 C16.4183656,17.3477176 17.1413003,16.5106029 17.1413003,15.5447889 C17.1413003,14.5791377 16.4183656,13.7418603 15.4249416,13.7418603 Z M15.4249416,19.3439393 C13.2308656,19.3439393 11.5661916,17.7341408 11.5661916,15.5447889 C11.5661916,13.3555997 13.2308656,11.7456386 15.4249416,11.7456386 C17.6188547,11.7456386 19.2835286,13.3555997 19.2835286,15.5447889 C19.2835286,17.7341408 17.6188547,19.3439393 15.4249416,19.3439393 Z" id="Fill-17" fill="#FFDA1A"></path>
        <polygon id="Fill-18" fill="#FFDA1A" points="20.3674416 19.124939 22.5095069 19.124939 22.5095069 9.5951731 20.3674416 9.5951731"></polygon>
        <path d="M27.6845069,13.7290066 C26.6521156,13.7290066 25.8649416,14.475983 25.8649416,15.5190816 C25.8649416,16.5621802 26.5875503,17.360734 27.6585829,17.360734 C28.7299416,17.360734 29.4913547,16.5750339 29.4913547,15.5190816 C29.4913547,14.488674 28.7167351,13.7290066 27.6845069,13.7290066 Z M29.4783112,19.124939 L29.4783112,18.352418 L29.4527134,18.352418 C29.0007569,19.1119226 28.1491808,19.3567929 27.310159,19.3567929 C25.116409,19.3567929 23.7225503,17.6440025 23.7225503,15.5319353 C23.7225503,13.4585917 25.116409,11.7326223 27.2715177,11.7326223 C28.097496,11.7326223 28.7945069,11.9905089 29.3751047,12.582916 L29.3751047,9.5951731 L31.5173329,9.5951731 L31.5173329,19.124939 L29.4783112,19.124939 Z" id="Fill-19" fill="#FFDA1A"></path>
        <polyline id="Fill-20" fill="#302A3D" points="4.55890903 23.2311127 4.55890903 30.6234294 2.11994164 30.6234294 2.11994164 23.2311127 0.235811205 23.2311127 0.235811205 21.0936636 6.43015903 21.0936636 6.43015903 23.2311127 4.55890903 23.2311127"></polyline>
        <path d="M9.06298512,26.6955799 L9.06298512,30.6234294 L6.92059381,30.6234294 L6.92059381,23.475983 L8.93385468,23.475983 L8.93385468,24.2359758 L8.95945251,24.2359758 C9.33396338,23.5016903 9.92760468,23.2311127 10.7535829,23.2311127 L10.7535829,25.3819036 C9.81151773,25.4077737 9.06298512,25.5878876 9.06298512,26.6955799" id="Fill-21" fill="#302A3D"></path>
        <path d="M16.4829308,30.6234294 L16.4829308,29.8634367 L16.4571699,29.8634367 C16.0828221,30.6364458 15.3990177,30.8551207 14.5986373,30.8551207 C13.8114634,30.8551207 13.0117351,30.5848685 12.4953764,29.9537377 C11.9146156,29.2326313 11.8500503,28.6400615 11.8500503,27.7515321 L11.8500503,23.475983 L13.9924416,23.475983 L13.9924416,27.4295399 C13.9924416,28.24111 14.1729308,28.8590617 15.1407569,28.8590617 C16.0313003,28.8590617 16.3668438,28.2280936 16.3668438,27.4038326 L16.3668438,23.475983 L18.5090721,23.475983 L18.5090721,30.6234294 L16.4829308,30.6234294" id="Fill-22" fill="#302A3D"></path>
        <path d="M22.5095069,30.868137 C21.0126047,30.868137 19.7607569,30.0695833 19.5928221,28.4983458 L21.7223329,28.4983458 C21.7867351,28.9363464 22.1093982,29.1553467 22.5351047,29.1553467 C22.8579308,29.1553467 23.2836373,28.9750701 23.2836373,28.6015005 C23.2836373,28.0865407 22.7030395,27.9318087 22.3159742,27.7772394 C22.0063547,27.6742475 21.6967351,27.5714182 21.3867895,27.4555726 C20.5348873,27.1462714 19.6834742,26.5925879 19.6834742,25.5878876 C19.6834742,24.0940974 21.0770069,23.2311127 22.4578221,23.2311127 C23.8903221,23.2311127 25.0647242,23.9655609 25.2067351,25.4850583 L23.1031482,25.4850583 C23.0901047,25.0857814 22.806409,24.9442285 22.4322242,24.9442285 C22.1480395,24.9442285 21.8253764,25.0987978 21.8253764,25.4206273 C21.8253764,26.5410106 25.4261916,25.9098798 25.4261916,28.4342403 C25.4261916,30.0440387 23.9677677,30.868137 22.5095069,30.868137" id="Fill-23" fill="#302A3D"></path>
        <polyline id="Fill-24" fill="#302A3D" points="29.065159 25.0987978 29.065159 30.6234294 26.9229308 30.6234294 26.9229308 25.0987978 25.8647786 25.0987978 25.8647786 23.475983 26.9229308 23.475983 26.9229308 21.0936636 29.065159 21.0936636 29.065159 23.475983 30.0977134 23.475983 30.0977134 25.0987978 29.065159 25.0987978"></polyline>
        <path d="M34.2142351,25.0343668 C33.4401047,25.0343668 32.7558112,25.4850583 32.5882025,26.2575793 L35.8404308,26.2575793 C35.672496,25.4850583 34.9885286,25.0343668 34.2142351,25.0343668 Z M37.9308112,27.7001175 L32.5622786,27.7001175 C32.6915721,28.5500859 33.4013003,29.052192 34.239996,29.052192 C34.8209199,29.052192 35.1949416,28.8205008 35.5433656,28.3825002 L37.7372786,28.3825002 C37.1177134,29.8121848 35.8531482,30.8551207 34.239996,30.8551207 C32.1494525,30.8551207 30.4459742,29.1553467 30.4459742,27.0689867 C30.4459742,24.9956431 32.0979308,23.2311127 34.2013547,23.2311127 C36.3954308,23.2311127 37.982496,24.9827895 37.982496,27.1334177 C37.982496,27.326548 37.9696156,27.5069873 37.9308112,27.7001175 Z" id="Fill-25" fill="#302A3D"></path>
        <path d="M42.7960286,25.2274971 C41.7636373,25.2274971 40.9764634,25.9744735 40.9764634,27.0175721 C40.9764634,28.060508 41.6992351,28.8590617 42.7702677,28.8590617 C43.8413003,28.8590617 44.6028764,28.0735244 44.6028764,27.0175721 C44.6028764,25.9871644 43.8284199,25.2274971 42.7960286,25.2274971 Z M44.5896699,30.6234294 L44.5896699,29.8507457 L44.5640721,29.8507457 C44.1124416,30.6104131 43.2607025,30.8551207 42.4218438,30.8551207 C40.2279308,30.8551207 38.8342351,29.142493 38.8342351,27.030263 C38.8342351,24.9570822 40.2279308,23.2311127 42.3828764,23.2311127 C43.2088547,23.2311127 43.9060286,23.4889994 44.4867895,24.0814065 L44.4867895,21.0936636 L46.6288547,21.0936636 L46.6288547,30.6234294 L44.5896699,30.6234294 Z" id="Fill-26" fill="#302A3D"></path>
        <path d="M3.87494164,42.3021965 C1.95200686,42.3021965 0.429343814,41.3103498 0.429343814,39.2757299 L0.429343814,38.966754 L2.85526773,38.966754 C2.85526773,39.5848685 3.13928947,40.2672512 3.84918077,40.2672512 C4.35233294,40.2672512 4.77836555,39.8682997 4.77836555,39.3530146 C4.77836555,38.7347374 4.2621699,38.5287535 3.75885468,38.3099159 C3.47483294,38.1812167 3.19113729,38.0650456 2.90711555,37.9492 C1.6683112,37.4342403 0.571354683,36.7129712 0.571354683,35.2190183 C0.571354683,33.441797 2.28771338,32.4117147 3.91374599,32.4117147 C4.84293077,32.4117147 5.88803947,32.7594143 6.49472425,33.493537 C6.98483294,34.0987978 7.10124599,34.6267739 7.1271699,35.3737503 L4.71380034,35.3737503 C4.63635468,34.8457742 4.45586555,34.4463346 3.83630034,34.4463346 C3.41026773,34.4463346 2.99760468,34.7426195 2.99760468,35.193311 C2.99760468,35.3350267 3.01032207,35.4765796 3.08776773,35.5924252 C3.31994164,35.9788484 4.57195251,36.4682636 4.97189816,36.6487029 C6.23662642,37.2282563 7.20461555,37.8849318 7.20461555,39.3788846 C7.20461555,41.3747808 5.75907207,42.3021965 3.87494164,42.3021965" id="Fill-27" fill="#302A3D"></path>
        <path d="M11.8502134,36.5328573 C11.0757569,36.5328573 10.3921156,36.9833861 10.2243438,37.7559071 L13.4760829,37.7559071 C13.3084742,36.9833861 12.6246699,36.5328573 11.8502134,36.5328573 Z M15.5667895,39.1984453 L10.1984199,39.1984453 C10.3272242,40.0484136 11.0371156,40.5506825 11.8761373,40.5506825 C12.4567351,40.5506825 12.831246,40.3188285 13.1796699,39.8809907 L15.3732569,39.8809907 C14.7540177,41.3103498 13.4891264,42.3536111 11.8761373,42.3536111 C9.78543077,42.3536111 8.08195251,40.6538371 8.08195251,38.5674772 C8.08195251,36.4939709 9.73390903,34.7296032 11.8373329,34.7296032 C14.0310829,34.7296032 15.6186373,36.4812799 15.6186373,38.6319082 C15.6186373,38.8250384 15.6055938,39.005315 15.5667895,39.1984453 Z" id="Fill-28" fill="#302A3D"></path>
        <path d="M18.9351047,38.1940703 L18.9351047,42.1217572 L16.7928764,42.1217572 L16.7928764,34.9744735 L18.8061373,34.9744735 L18.8061373,35.7343035 L18.8318982,35.7343035 C19.2060829,35.0001808 19.7997242,34.7296032 20.6257025,34.7296032 L20.6257025,36.8802314 C19.6836373,36.9062641 18.9351047,37.086378 18.9351047,38.1940703" id="Fill-29" fill="#302A3D"></path>
        <polyline id="Fill-30" fill="#302A3D" points="26.0715177 42.1217572 24.0196156 42.1217572 21.4513547 34.9744735 23.6711916 34.9744735 25.0391264 39.4301365 25.0647242 39.4301365 26.4328221 34.9744735 28.6523329 34.9744735 26.0715177 42.1217572"></polyline>
        <path d="M29.646246,42.1217572 L31.7881482,42.1217572 L31.7881482,34.9744735 L29.646246,34.9744735 L29.646246,42.1217572 Z M29.646246,34.2146434 L31.7881482,34.2146434 L31.7881482,32.5919913 L29.646246,32.5919913 L29.646246,34.2146434 Z" id="Fill-31" fill="#302A3D"></path>
        <path d="M36.8211373,42.3536111 C34.6790721,42.3536111 32.9886373,40.6665281 32.9886373,38.5287535 C32.9886373,36.4166863 34.6404308,34.7296032 36.7696156,34.7296032 C38.6022242,34.7296032 40.1894525,35.9144174 40.5636373,37.7303625 L38.3956482,37.7303625 C38.0858656,37.0606707 37.5308656,36.7258248 36.7955395,36.7258248 C35.7629851,36.7258248 35.1435829,37.5759559 35.1435829,38.5414445 C35.1435829,39.5461448 35.8017895,40.3575522 36.8470612,40.3575522 C37.5567895,40.3575522 38.0731482,40.0227063 38.3956482,39.4044292 L40.5766808,39.4044292 C40.1635286,41.1559432 38.6278221,42.3536111 36.8211373,42.3536111" id="Fill-32" fill="#302A3D"></path>
        <path d="M45.1321156,36.5328573 C44.3578221,36.5328573 43.6738547,36.9833861 43.5059199,37.7559071 L46.7581482,37.7559071 C46.5903764,36.9833861 45.906246,36.5328573 45.1321156,36.5328573 Z M48.8485286,39.1984453 L43.4803221,39.1984453 C43.6092895,40.0484136 44.3190177,40.5506825 45.1577134,40.5506825 C45.7386373,40.5506825 46.1128221,40.3188285 46.461246,39.8809907 L48.654996,39.8809907 C48.0357569,41.3103498 46.7708656,42.3536111 45.1577134,42.3536111 C43.0671699,42.3536111 41.3640177,40.6538371 41.3640177,38.5674772 C41.3640177,36.4939709 43.0158112,34.7296032 45.1190721,34.7296032 C47.3131482,34.7296032 48.9002134,36.4812799 48.9002134,38.6319082 C48.9002134,38.8250384 48.8871699,39.005315 48.8485286,39.1984453 Z" id="Fill-33" fill="#302A3D"></path>
        <path d="M0.284072074,5.35460544 L0.284072074,4.7543885 L2.2960286,2.7124469 C2.5585286,2.45016722 2.75907207,2.16738678 2.75907207,1.78096357 C2.75907207,1.27739311 2.42026773,0.808478713 1.88793077,0.808478713 C1.28646338,0.808478713 0.975539466,1.31872006 0.975539466,1.87077646 L0.975539466,2.0019163 L0.25668077,2.0019163 L0.25668077,1.97425653 C0.249669901,1.22223628 0.546898161,0.560028925 1.27276773,0.270414897 C1.45928947,0.19443189 1.65999599,0.15294224 1.86037642,0.15294224 C2.78662642,0.15294224 3.47793077,0.891132604 3.47793077,1.80178975 C3.47793077,2.42950375 3.18086555,2.81576426 2.7659199,3.24367712 L1.34189816,4.69906897 L3.48494164,4.69906897 L3.48494164,5.35460544 L0.284072074,5.35460544" id="Fill-34" fill="#848887"></path>
        <path d="M6.69298512,1.82944952 C6.69298512,1.25005875 6.37472425,0.801319714 5.76640903,0.801319714 C5.15809381,0.801319714 4.81928947,1.24289976 4.81928947,1.82944952 L4.81928947,3.71275423 C4.81928947,4.31980475 5.13738729,4.79587815 5.7734199,4.79587815 C6.04309381,4.79587815 6.29189816,4.67173461 6.46472425,4.47160806 C6.67896338,4.23015457 6.69298512,4.03019073 6.69298512,3.72674681 L6.69298512,1.82944952 Z M7.41184381,3.71275423 C7.41184381,4.17499774 7.34972425,4.49926783 7.03863729,4.86486486 C6.72037642,5.24429178 6.23646338,5.45125192 5.74570251,5.45125192 C5.24793077,5.45125192 4.76401773,5.22362831 4.45293077,4.8302088 C4.16255034,4.45794088 4.10043077,4.11300732 4.10043077,3.65743469 L4.10043077,1.87761005 C4.10043077,1.15341228 4.43222425,0.560028925 5.11668077,0.277248486 C5.32390903,0.19443189 5.5521699,0.14610865 5.7734199,0.14610865 C6.72037642,0.14610865 7.41184381,0.897966194 7.41184381,1.82944952 L7.41184381,3.71275423 Z" id="Fill-35" fill="#848887"></path>
        <polyline id="Fill-36" fill="#848887" points="9.45119164 5.35460544 9.45119164 0.904962488 8.69760468 0.904962488 8.69760468 0.249588719 10.1703764 0.249588719 10.1703764 5.35460544 9.45119164 5.35460544"></polyline>
        <path d="M12.2345069,1.35874537 C12.2345069,1.88769773 12.6339634,2.17243062 13.2453764,2.33513514 C13.7020612,2.18040315 14.0526047,1.85499412 14.0526047,1.37501582 C14.0526047,0.951984091 13.7998873,0.512681913 13.1558656,0.512681913 C12.5605938,0.512681913 12.2345069,0.903172738 12.2345069,1.35874537 Z M14.207496,4.00285637 C14.207496,3.36017355 13.7591264,3.05103498 13.0415721,2.84765434 C12.4220069,3.0266293 12.0877677,3.43339058 12.0877677,3.93777456 C12.0633112,4.47469945 12.4709199,4.94654253 13.1475503,4.94654253 C13.7915721,4.94654253 14.207496,4.54807918 14.207496,4.00285637 Z M11.3540721,4.03539727 C11.3540721,3.36830878 11.7535286,2.8964657 12.4057025,2.61986803 L12.3975503,2.59546235 C11.8105938,2.31886468 11.5578764,1.86329205 11.5578764,1.40755672 C11.5578764,0.569628491 12.2671156,0 13.1966264,0 C14.2238003,0 14.7373873,0.642845521 14.7373873,1.30179879 C14.7373873,1.7493989 14.5172786,2.2293772 13.8651047,2.53851577 L13.8651047,2.56292145 C14.5254308,2.82324867 14.9330395,3.28695652 14.9330395,3.92963934 C14.9330395,4.84908253 14.1422786,5.46735967 13.131409,5.46735967 C12.0225503,5.46735967 11.3540721,4.8084064 11.3540721,4.03539727 Z" id="Fill-37" fill="#848887"></path>
    </g>
</svg>