<?xml version="1.0" encoding="utf-8"?>
<!-- Generator: Adobe Illustrator 22.1.0, SVG Export Plug-In . SVG Version: 6.00 Build 0)  -->
<svg version="1.1" id="Layer_1" xmlns="http://www.w3.org/2000/svg" xmlns:xlink="http://www.w3.org/1999/xlink" x="0px" y="0px"
	 width="626.8px" height="145.9px" viewBox="0 0 626.8 145.9" enable-background="new 0 0 626.8 145.9" xml:space="preserve">
<g>
	<path fill="#494545" d="M168.1,101v-3.4c0-39.5-23.1-63.9-56.9-63.9c-14.4,0-28.5,5.9-39.2,16.6c-10.5,10.5-16.2,24.1-16.2,39
		c0,15,5.3,28.5,15.6,39.3c10.9,11.5,23.9,17,40.1,17c23.7,0,41.3-11.3,51.6-33.4l-34.4,0c-4.7,4.2-9.9,5.9-16.2,5.9
		c-13.6,0-21.8-5.9-24.5-17.2L168.1,101z M136.6,78.9l-49.6,0c2.2-10.1,11.5-16.8,24.5-16.8C124,62.1,132.9,68,136.6,78.9"/>
	<path fill="#494545" d="M286.3,101v-3.4c0-39.5-23.1-63.9-56.9-63.9c-14.4,0-28.5,5.9-39.2,16.6c-10.5,10.5-16.2,24.1-16.2,39
		c0,15,5.3,28.5,15.6,39.3c10.9,11.5,23.9,17,40.1,17c23.7,0,41.3-11.3,51.6-33.4l-34.4,0c-4.7,4.2-9.9,5.9-16.2,5.9
		c-13.6,0-21.8-5.9-24.5-17.2L286.3,101z M254.8,78.9l-49.6,0c2.2-10.1,11.5-16.8,24.5-16.8C242.2,62.1,251.1,68,254.8,78.9"/>
	<path fill="#494545" d="M11.5,60.7l0,82.5l30.7,0l0-82.5l12.5,0l0-23.7H42.1l0-2.6c0-9.7,2.2-12.9,11.7-12.9h0.8l0-21.4
		c-1.8,0-3.4-0.2-4.9-0.2C23.5,0,11.3,10.3,11.3,33c0,1.2,0.2,2.6,0.2,4L0,37l0,23.7H11.5z"/>
	<path fill="#494545" d="M298.1,60.7l0,82.5h30.7l0-82.5l12.5,0l0-23.7l-12.5,0v-2.6c0-9.7,2.2-12.9,11.7-12.9h0.8V0.2
		c-1.8,0-3.4-0.2-4.9-0.2C310.2,0,298,10.3,298,33c0,1.2,0.2,2.6,0.2,4l-11.5,0v23.7H298.1z"/>
	<path fill="#494545" d="M453.3,89.4c0-14.4-6.1-29.1-17.4-39.7c-10.7-10.1-23.9-15.4-39.4-15.4c-14.4,0-28.5,5.9-39.2,16.6
		c-10.5,10.5-16.2,24.1-16.2,39c0,14.8,5.3,28.5,15.6,39.2c10.9,11.5,23.9,17,40.1,17c16,0,29.5-5.7,40.3-16.6
		C448,118.6,453.3,105.4,453.3,89.4 M422.3,90.2c0,14.4-11.3,26.1-25.1,26.1c-13.6,0-25.1-11.7-25.1-26.1
		c0-14.6,11.3-26.3,25.1-26.3C411,63.9,422.3,75.5,422.3,90.2"/>
	<path fill="#FFDD00" d="M501.3,72.1c-15-0.9-27.1-13-28-28.1l59.5,0l6.3,0v-0.7c0-25.8-16.5-43.1-39.3-43.1
		c-24.1,0-40.5,17.7-40.5,40.6c0,21.7,16.9,40.8,40,40.8c16.8,0,30.1-9.3,37.3-26.6H530c-4.8,10.1-15,17.1-26.9,17.1
		C502.4,72.2,501.9,72.2,501.3,72.1"/>
	<path fill="#FFDD00" d="M584.8,72.1c15-0.9,27.1-13,28-28.1l-59.5,0H547v-0.7c0-25.8,16.5-43.1,39.3-43.1
		c24.1,0,40.5,17.7,40.5,40.6c0,21.7-16.9,40.8-40,40.8c-16.8,0-30.1-9.3-37.3-26.6l6.7,0c4.8,10.1,15,17.1,26.9,17.1
		C583.6,72.2,584.2,72.2,584.8,72.1"/>
</g>
</svg>
